# xmcd CD database file
#
# Track frame offsets:
#	150
#	31822
#	62827
#	85362
#	109225
#	135365
#	162902
#	193060
#
# Disc length: 3177 seconds
#
# Revision: 0
# Processed by: cddbd v1.4PL0 Copyright (c) Steve Scherf et al.
# Submitted via: CDex 1.51
#
DISCID=660c6708
DTITLE=Jack Wilson - In New York
DYEAR=1993
DGENRE=Jazz
TTITLE0=THIS HART OF MINE
TTITLE1=THAT SUNDAY THAT SUMMER
TTITLE2=MOON MIST
TTITLE3=THE SECOND TIEME AROUND
TTITLE4=SANDIE, MY LOVE
TTITLE5=HOW SOON
TTITLE6=LONG AGO AND FAR AWAY
TTITLE7=IF SHE WALKED INTO MY LIFE
EXTD=YEAR: 1993
EXTT0=
EXTT1=
EXTT2=
EXTT3=
EXTT4=
EXTT5=
EXTT6=
EXTT7=
PLAYORDER=
